PathFileType	4	(X/Y/Z)	C:\Users\Basilio\Documents\Thesis Gigler\squatting_fais\c3dfiles\044\SLS_back_pre2\markers_experimental.trc
DataRate	CameraRate	NumFrames	NumMarkers	Units	OrigDataRate	OrigDataStartFrame	OrigNumFrames
200.000000	200.000000	4	63	mm	200.000000	0	1449
Frame#	Time	FHD			LBHD			RBHD			C7			T10			LSHO			LUUPA			LMUPA			LDUPA			LLEP			LMEP			LUL			LRFIN			RSHO			RUPA1			RMUPA			RDUPA			RLEP			RMEP			RUL			LASI			RASI			USACR			LSACR			RSACR			LTHI1			LTHI2			LTHI3			LTHI4			LLFC			LMFC			LTIB1			LTIB2			LTIB3			LTIB4			LLMAL			LMMAL			LHEE			LMT1			LMT2			LMT5			RTHI			RTHI2			RTHI3			RTHI4			RLFC			RMFC			RTIB1			RTIB2			RTIB3			RTIB4			RLMAL			RMMAL			RHEE			RMT1			RMT2			RMT5			RUFIN			CLAV			LRAD			RRAD			*61			*62			
		X1	Y1	Z1	X2	Y2	Z2	X3	Y3	Z3	X4	Y4	Z4	X5	Y5	Z5	X6	Y6	Z6	X7	Y7	Z7	X8	Y8	Z8	X9	Y9	Z9	X10	Y10	Z10	X11	Y11	Z11	X12	Y12	Z12	X13	Y13	Z13	X14	Y14	Z14	X15	Y15	Z15	X16	Y16	Z16	X17	Y17	Z17	X18	Y18	Z18	X19	Y19	Z19	X20	Y20	Z20	X21	Y21	Z21	X22	Y22	Z22	X23	Y23	Z23	X24	Y24	Z24	X25	Y25	Z25	X26	Y26	Z26	X27	Y27	Z27	X28	Y28	Z28	X29	Y29	Z29	X30	Y30	Z30	X31	Y31	Z31	X32	Y32	Z32	X33	Y33	Z33	X34	Y34	Z34	X35	Y35	Z35	X36	Y36	Z36	X37	Y37	Z37	X38	Y38	Z38	X39	Y39	Z39	X40	Y40	Z40	X41	Y41	Z41	X42	Y42	Z42	X43	Y43	Z43	X44	Y44	Z44	X45	Y45	Z45	X46	Y46	Z46	X47	Y47	Z47	X48	Y48	Z48	X49	Y49	Z49	X50	Y50	Z50	X51	Y51	Z51	X52	Y52	Z52	X53	Y53	Z53	X54	Y54	Z54	X55	Y55	Z55	X56	Y56	Z56	X57	Y57	Z57	X58	Y58	Z58	X59	Y59	Z59	X60	Y60	Z60	X61	Y61	Z61	X62	Y62	Z62	X63	Y63	Z63	

1	0	-226.4912719726563	1794.733032226563	-895.2886962890627	-367.7406921386719	1763.156005859375	-957.1708984375002	-393.8538208007814	1745.99365234375	-793.850769042969	-413.671600341797	1558.462036132813	-887.9526977539065	-385.7021484375001	1257.61572265625	-891.695251464844	-325.9254455566407	1588.504638671875	-1036.957885742188	-162.0190582275391	1578.370727539063	-1135.613403320313	-135.430908203125	1592.846801757813	-1096.028686523438	-93.78590393066408	1578.964721679688	-1135.92041015625	-36.10709381103516	1582.234741210938	-1125.183715820313	-37.89064025878907	1508.314819335938	-1112.085571289063	219.0182189941407	1621.282836914063	-1007.547668457031	229.3189392089844	1638.334838867188	-904.742126464844	-325.8876953125001	1563.12890625	-728.0013427734376	-171.0335540771485	1550.985107421875	-627.7558593750001	-143.3951416015625	1570.7041015625	-665.9417724609376	-101.8759918212891	1558.498291015625	-623.4411621093751	-41.23498535156251	1569.338134765625	-632.8007812500001	-34.59358215332032	1489.052734375	-647.4047241210939	209.3675231933594	1616.444946289063	-758.4465332031251	-211.031723022461	1070.211669921875	-1007.53515625	-191.8405303955078	1059.146850585938	-789.3469238281252	-369.5968627929688	1115.851684570313	-884.6280517578127	-376.5238647460938	1083.010375976563	-910.2907714843752	-370.6022644042969	1086.375	-853.1213378906252	-315.5268554687501	834.747497558594	-1072.732177734375	-285.1901855468751	755.2946777343751	-1078.951782226563	-236.289291381836	755.6760864257814	-1075.702880859375	-313.4411010742188	703.6782836914064	-1065.084228515625	-301.4456787109376	543.2033691406251	-1057.203491210938	-287.2211608886719	531.9813232421876	-935.571716308594	-273.0900268554688	365.5290527343751	-995.007995605469	-299.8105163574219	321.4394531250001	-1068.193237304688	-268.7369995117188	319.8851623535157	-1032.56494140625	-280.3311462402344	240.1212158203126	-1006.521667480469	-328.8165588378907	123.0927810668946	-1057.348754882813	-308.1774597167969	130.07421875	-974.028991699219	-389.4367675781251	98.11587524414065	-1009.174072265625	-180.4766387939453	60.72434997558595	-987.2993164062502	-178.8846282958985	58.41290664672853	-1033.137573242188	-216.6076660156251	44.40586471557618	-1080.477661132813	-294.3321228027344	792.364929199219	-701.7530517578126	-254.4173736572266	737.1817016601564	-701.4717407226564	-222.4389343261719	738.8175048828126	-708.0823974609376	-281.9971618652344	657.8906860351564	-716.0919799804689	-290.6085510253907	543.5638427734376	-722.9682006835939	-295.9026489257813	533.6649169921876	-846.5072021484377	-252.6121978759766	412.7991943359376	-744.9584960937501	-325.5498352050782	345.6863098144532	-695.9226684570314	-284.0534057617188	336.4289855957032	-712.8848876953126	-276.1931457519532	284.9638061523438	-736.9811401367189	-347.5434265136719	135.6941223144532	-718.7530517578126	-325.1191711425782	139.7982482910157	-800.0440063476565	-405.3345947265626	108.3449783325196	-764.8213500976564	-197.9646911621094	63.4213104248047	-778.0327758789065	-196.1265869140626	58.63433074951173	-742.5792236328126	-236.8077697753907	46.78843307495118	-690.0146484375001	nan	nan	nan	nan	nan	nan	nan	nan	nan	nan	nan	nan	nan	nan	nan	nan	nan	nan	
2	0.005	-226.4442596435547	1794.490844726563	-895.2427978515627	-367.7445983886719	1763.15869140625	-957.1716308593752	-393.7820739746095	1745.973876953125	-793.9165039062502	-413.6737365722657	1558.459838867188	-887.9244384765627	-385.753631591797	1257.627075195313	-891.717956542969	-325.9203796386719	1588.509155273438	-1037.01416015625	-162.1251983642578	1578.415283203125	-1135.61474609375	-135.426010131836	1592.86181640625	-1096.043579101563	-93.81667327880861	1578.970703125	-1135.943359375	-36.11123275756837	1582.23583984375	-1125.183471679688	-37.82812881469727	1508.343627929688	-1112.110229492188	219.0212097167969	1621.321044921875	-1007.551513671875	229.3504180908204	1638.330932617188	-904.8093872070315	-325.8904113769532	1563.17333984375	-728.0292358398439	-171.0024719238282	1551.012817382813	-627.8048706054689	-143.3404388427735	1570.752319335938	-666.0045776367189	-101.8540267944336	1558.510131835938	-623.4813232421876	-41.19904708862305	1569.35986328125	-632.8005981445314	-34.59199905395509	1489.072998046875	-647.4290771484376	209.4212646484376	1616.453979492188	-758.4622192382814	-211.0889587402344	1070.195068359375	-1007.533630371094	-191.8543701171875	1059.174560546875	-789.3657226562502	-369.5872192382813	1115.821411132813	-884.6302490234377	-376.5025634765626	1083.008056640625	-910.294128417969	-370.6424255371094	1086.3798828125	-853.1336669921877	-315.5324096679688	834.7378540039065	-1072.718994140625	-285.2030029296876	755.2837524414064	-1078.921752929688	-236.3041229248047	755.6658325195314	-1075.7001953125	-313.4905700683594	703.6548461914064	-1065.075439453125	-301.5088806152344	543.1887817382814	-1057.165771484375	-287.2211608886719	531.9813232421876	-935.571716308594	-273.0824279785157	365.5284423828126	-995.0676879882815	-299.7615356445313	321.4427795410157	-1068.177490234375	-268.7319030761719	319.9082336425782	-1032.62109375	-280.3407592773438	240.1543273925782	-1006.527709960938	-328.7800598144532	123.1187057495117	-1057.362548828125	-308.1657409667969	130.1011505126953	-974.0227661132815	-389.4264526367189	98.14981079101565	-1009.123962402344	-180.5766143798828	61.20032501220705	-987.0464477539065	-178.909912109375	58.3965530395508	-1033.179931640625	-216.6394805908204	44.35183715820313	-1080.473388671875	-294.3149108886719	792.3660888671877	-701.7472534179689	-254.4100341796876	737.1931762695314	-701.4806518554689	-222.4634857177735	738.8400268554689	-708.0576782226564	-281.9971618652344	657.8906860351564	-716.0919799804689	-290.6778564453126	543.5919799804689	-722.9284667968751	-295.9026489257813	533.6649169921876	-846.5072021484377	-252.5993804931641	412.8042907714845	-744.9375000000001	-325.5361633300782	345.6849975585938	-695.9105224609376	-284.0534057617188	336.4289855957032	-712.8848876953126	-276.2100524902344	284.9501953125001	-737.0293579101564	-347.5915222167969	135.696762084961	-718.7371826171876	-325.1242065429688	139.8004760742188	-800.062683105469	-405.3330993652345	108.3451385498047	-764.8386230468751	-197.9741363525391	63.42275619506837	-777.969909667969	-195.7901306152344	57.89648056030275	-742.8546752929689	-236.1974029541016	46.81738281250001	-689.6373901367189	nan	nan	nan	nan	nan	nan	nan	nan	nan	nan	nan	nan	nan	nan	nan	nan	nan	nan	
3	0.01	-226.4844055175782	1794.717041015625	-895.3278808593752	-367.7478942871094	1763.198974609375	-957.183776855469	-393.7504272460939	1745.972900390625	-793.9214477539065	-413.6468811035157	1558.459350585938	-887.9868164062502	-385.7544555664064	1257.636474609375	-891.682312011719	-325.7570495605469	1588.563842773438	-1036.985107421875	-162.0906066894532	1578.47509765625	-1135.663208007813	-135.3396911621094	1592.876342773438	-1096.066528320313	-93.75970458984376	1579.006591796875	-1135.95458984375	-36.0877914428711	1582.274047851563	-1125.220092773438	-37.70307540893555	1508.361328125	-1112.200073242188	219.1200408935547	1621.27294921875	-1007.632751464844	229.4129791259766	1638.326293945313	-904.886169433594	-325.8510437011719	1563.197875976563	-728.0642089843751	-171.0150909423828	1551.01416015625	-627.7861938476564	-143.3170318603516	1570.765991210938	-666.0037841796876	-101.812484741211	1558.551513671875	-623.5303344726564	-41.16503906250001	1569.35498046875	-632.8106079101564	-34.53811264038087	1489.107421875	-647.4617309570314	209.4563903808594	1616.472290039063	-758.5310668945314	-211.1020965576172	1070.196166992188	-1007.468994140625	-191.8400573730469	1059.178344726563	-789.345397949219	-369.5871887207032	1115.821411132813	-884.630310058594	-376.5777587890626	1083.019287109375	-910.284851074219	-370.6424255371094	1086.3798828125	-853.1336669921877	-315.5769958496094	834.7341918945315	-1072.713745117188	-285.2051696777344	755.2758178710939	-1078.91259765625	-236.2957305908204	755.6708374023439	-1075.664428710938	-313.4558715820313	703.6771850585939	-1065.084228515625	-300.5378112792969	542.6356201171876	-1057.287353515625	-287.2349243164063	531.9970092773439	-935.5696411132815	-273.0646057128907	365.5339660644532	-995.0441894531252	-299.8105163574219	321.4394531250001	-1068.193237304688	-268.7694702148438	319.8729553222657	-1032.593994140625	-280.3087158203126	240.1232299804688	-1006.560607910156	-328.7373046875001	123.0878067016602	-1057.349853515625	-308.1636962890626	130.0677642822266	-974.0222167968752	-389.4645080566407	98.15093231201175	-1009.141723632813	-180.4337463378907	60.75339889526369	-986.4184570312502	-178.9354858398438	58.40645217895509	-1033.20166015625	-216.6193084716797	44.34524154663087	-1080.473022460938	-294.3010864257813	792.3604736328127	-701.7258300781251	-254.420883178711	737.1963500976564	-701.4989624023439	-222.4480590820313	738.8422241210939	-708.0212402343751	-281.9639282226563	657.8848266601564	-716.0839233398439	-290.6628112792969	543.6030883789064	-722.8995361328126	-295.9026489257813	533.6649169921876	-846.5072021484377	-252.6077575683594	412.8045043945314	-744.9547119140626	-325.5389709472657	345.6851501464844	-695.9323730468751	-284.0525207519532	336.4129943847657	-712.9177856445314	-276.1756591796876	284.9627075195313	-737.0198364257814	-347.5667419433594	135.604736328125	-718.7798461914064	-325.1257934570313	139.8011322021485	-800.0630493164065	-405.3279724121095	108.3590621948242	-764.8318481445314	-198.0203399658204	63.35747146606447	-778.0769653320315	-195.5615539550782	58.1084671020508	-742.5321044921876	-236.1998748779297	46.81743621826173	-689.6687011718751	nan	nan	nan	nan	nan	nan	nan	nan	nan	nan	nan	nan	nan	nan	nan	nan	nan	nan	
4	0.015	-226.4879913330079	1794.738525390625	-895.3314208984377	-367.6950378417969	1763.170654296875	-957.2111816406252	-393.7391967773439	1745.971313476563	-793.938903808594	-413.6512145996095	1558.436889648438	-887.9842529296877	-385.7453613281251	1257.656860351563	-891.713073730469	-325.7853088378907	1588.581909179688	-1037.012451171875	-162.0531768798828	1578.465576171875	-1135.627807617188	-135.3461151123047	1592.901611328125	-1096.053833007813	-93.65713500976564	1579.039306640625	-1135.996704101563	-36.0034294128418	1582.275634765625	-1125.263793945313	-37.70307540893555	1508.361328125	-1112.200073242188	219.1313934326172	1621.3076171875	-1007.651794433594	229.5666198730469	1638.451416015625	-905.0193481445315	-325.8026428222657	1563.198974609375	-728.0690917968751	-170.9654083251953	1551.036987304688	-627.8351440429689	-143.3114776611328	1570.802124023438	-666.0256347656251	-101.7650222778321	1558.566528320313	-623.5563964843751	-41.1672706604004	1569.399291992188	-632.8701782226564	-34.52524185180665	1489.097290039063	-647.4413452148439	209.4535675048829	1616.4599609375	-758.5565795898439	-211.1711730957032	1070.182495117188	-1007.428466796875	-191.8519439697266	1059.157592773438	-789.3601684570315	-369.6409912109376	1115.830322265625	-884.6157226562502	-376.5756835937501	1083.019409179688	-910.2526855468752	-370.6424255371094	1086.3798828125	-853.1336669921877	-315.5643920898438	834.774841308594	-1072.694580078125	-285.2124633789063	755.3049316406251	-1078.892456054688	-236.3714294433594	755.6716918945314	-1075.638305664063	-313.5169982910157	703.6570434570314	-1065.046752929688	-300.4390258789063	542.6060180664064	-1057.271606445313	-287.2211608886719	531.9813232421876	-935.5716552734377	-273.1340332031251	365.5183715820313	-995.003356933594	-299.7156372070313	321.4758300781251	-1068.184204101563	-268.7728576660157	319.8955688476563	-1032.59033203125	-280.3406982421876	240.1542663574219	-1006.527709960938	-328.7405090332032	123.0899047851563	-1057.349609375	-308.2024536132813	130.0370788574219	-973.9724121093752	-389.3745727539064	98.11914825439456	-1009.124450683594	-180.4574584960938	60.70709609985353	-987.2307739257815	-178.9418640136719	58.39033889770509	-1033.19921875	-216.7580718994141	44.31065368652344	-1080.453735351563	-294.3061828613282	792.3496093750002	-701.7272949218751	-254.4209136962891	737.1964721679689	-701.4985351562501	-222.436019897461	738.8275756835939	-708.0691528320314	-281.9639282226563	657.8848266601564	-716.0839233398439	-290.6377868652344	543.5870971679689	-722.9528808593751	-295.8312988281251	533.6845092773439	-846.4988403320315	-252.6144256591797	412.8082580566407	-744.9552001953126	-325.5156555175782	345.6955871582032	-695.9043579101564	-284.0525207519532	336.4129943847657	-712.9177856445314	-276.2072753906251	284.9400634765626	-736.9774780273439	-347.6082153320313	135.6223602294922	-718.7790527343751	-325.1621704101563	139.7784118652344	-800.067810058594	-405.3282775878907	108.3578872680664	-764.8428955078126	-198.0094451904297	63.33266067504884	-778.053894042969	-195.5801849365235	58.10333633422853	-742.5579833984376	-236.2265167236329	46.81660079956055	-689.6466064453126	nan	nan	nan	nan	nan	nan	nan	nan	nan	nan	nan	nan	nan	nan	nan	nan	nan	nan	
